<?xml version="1.0" encoding="utf-8"?>
<!-- Generator: Adobe Illustrator 28.0.0, SVG Export Plug-In . SVG Version: 6.00 Build 0)  -->
<svg version="1.1" id="Layer_1" xmlns="http://www.w3.org/2000/svg" xmlns:xlink="http://www.w3.org/1999/xlink" x="0px" y="0px"
	 viewBox="0 0 169.8 208.6" style="enable-background:new 0 0 169.8 208.6;" xml:space="preserve">
<style type="text/css">
	.st0{fill:#FFFFFF;stroke:#231F20;stroke-miterlimit:10;}
	.st1{fill:#231F20;stroke:#231F20;stroke-miterlimit:10;}
</style>
<path class="st0" d="M92.7,152.4c-2.2,0-4,1.6-4,4.5s1.8,4.6,4,4.6s4-1.7,4-4.6S94.9,152.4,92.7,152.4z"/>
<path class="st0" d="M92.7,152.4c-2.2,0-4,1.6-4,4.5s1.8,4.6,4,4.6s4-1.7,4-4.6S94.9,152.4,92.7,152.4z"/>
<path class="st0" d="M157.9,34.1c-19.5-23.5-73-24.1-73-24.1s-53.5,0.6-73,24.1c-8,108.4,8,138.6,73,163.8
	C149.9,172.7,165.9,142.4,157.9,34.1z"/>
<path class="st0" d="M70.7,161.2c2.3,0,4.4-1.1,5.8-2.9l4.4,4c-2.4,3-6.1,4.6-10.6,4.6c-7.8,0-13.5-5.3-13.5-12.8
	s5.7-12.8,13.5-12.8c4.5,0,8.2,1.7,10.6,4.6l-4.4,4c-1.4-1.8-3.5-2.9-5.8-2.9c-4,0-6.9,2.8-6.9,7S66.6,161.2,70.7,161.2z"/>
<path class="st0" d="M92.7,166.8c-6.2,0-10.8-4.1-10.8-9.9s4.5-9.8,10.8-9.8s10.8,4.1,10.8,9.8S99,166.8,92.7,166.8L92.7,166.8z"/>
<path class="st0" d="M109.2,166.8c-2.1,0.1-3.9-1.6-4-3.8c0-0.1,0-0.1,0-0.2c0-2.2,1.8-4,4-4s4,1.8,4,4c0.1,2.1-1.6,3.9-3.7,4
	C109.4,166.8,109.3,166.8,109.2,166.8L109.2,166.8z"/>
<polygon class="st1" points="108.4,125.2 102.2,109.1 67.1,109.1 60.9,125.2 29.1,125.2 69.5,32.7 100.2,32.7 140.6,125.2 "/>
<path class="st0" d="M92.7,152.4c-2.2,0-4,1.6-4,4.5s1.8,4.6,4,4.6s4-1.7,4-4.6S94.9,152.4,92.7,152.4z"/>
<polygon class="st0" points="75.7,86.7 93.7,86.7 84.7,63.4 "/>
<path class="st0" d="M92.7,152.4c-2.2,0-4,1.6-4,4.5s1.8,4.6,4,4.6s4-1.7,4-4.6S94.9,152.4,92.7,152.4z"/>
<path class="st0" d="M92.7,152.4c-2.2,0-4,1.6-4,4.5s1.8,4.6,4,4.6s4-1.7,4-4.6S94.9,152.4,92.7,152.4z"/>
<path class="st0" d="M167.9,33.3l-0.2-3.2l-2-2.5C156,16.1,139.3,8,116,3.4c-10.2-2-20.6-3.1-31-3.4h-0.2C74.4,0.3,64,1.4,53.8,3.4
	C30.5,8,13.8,16.1,4.2,27.7l-2,2.5L2,33.4c-4.3,58.9-1.5,93,10,118s31.6,41.2,69.4,55.9l3.6,1.4l3.6-1.4
	c37.8-14.6,57.9-30.8,69.4-55.9S172.2,92.2,167.9,33.3z M153.3,149.3c-10.9,23.8-30.2,39.2-66.6,53.3l-1.8,0.7l-1.8-0.7
	c-36.4-14.1-55.7-29.6-66.6-53.3C5.4,125.1,2.6,91.6,6.9,33.7L7,32.1l1-1.2C28.8,5.9,82.6,5,84.8,5H85c2.3,0,56.1,0.9,76.8,25.9
	l1,1.2l0.1,1.6C167.1,91.6,164.4,125.1,153.3,149.3z"/>
</svg>
